<svg fill="none" height="32" viewBox="0 0 32 32" width="32" xmlns="http://www.w3.org/2000/svg"><rect fill="#fef0f0" height="32" rx="7" width="32"/><path d="m22.5849 12.2231c-.2234-.5133-.5455-.9785-.9484-1.3694-.4032-.3922-.8785-.7038-1.4002-.91794-.5409-.22296-1.1211-.33708-1.7068-.33574-.8218 0-1.6235.22327-2.3203.64498-.1667.1009-.325.2117-.475.3325-.1501-.1208-.3084-.2316-.4751-.3325-.6967-.42171-1.4985-.64498-2.3203-.64498-.5917 0-1.1651.11246-1.7068.33574-.5234.21504-.9951.52424-1.40019.91794-.40338.3905-.72562.8558-.94844 1.3694-.23169.5342-.35004 1.1015-.35004 1.6853 0 .5508.11335 1.1247.33837 1.7085.18836.4879.45839.994.80343 1.5051.54677.8087 1.29847 1.6522 2.23197 2.5073 1.5468 1.4174 3.0786 2.3965 3.1436 2.4362l.3951.2514c.175.1108.4.1108.5751 0l.395-.2514c.065-.0413 1.5952-1.0188 3.1437-2.4362.9334-.8551 1.6852-1.6986 2.2319-2.5073.3451-.5111.6168-1.0172.8034-1.5051.2251-.5838.3384-1.1577.3384-1.7085.0017-.5838-.1167-1.1511-.3484-1.6853z" fill="#ff8585"/></svg>